<?xml version="1.0" standalone="no"?>
<!DOCTYPE svg PUBLIC "-//W3C//DTD SVG 20010904//EN"
 "http://www.w3.org/TR/2001/REC-SVG-20010904/DTD/svg10.dtd">
<svg version="1.0" xmlns="http://www.w3.org/2000/svg"
 width="380.000000pt" height="380.000000pt" viewBox="0 0 380.000000 380.000000"
 preserveAspectRatio="xMidYMid meet">
<metadata>
Created by potrace 1.11, written by Peter Selinger 2001-2013
</metadata>
<g transform="translate(0.000000,380.000000) scale(0.100000,-0.100000)"
fill="#000000" stroke="none">
<path d="M6 3309 c6 -8 25 -52 41 -99 52 -147 343 -923 364 -967 10 -24 19
-47 19 -52 0 -4 9 -30 20 -57 30 -77 300 -801 300 -807 0 -3 30 -34 66 -69 37
-35 94 -90 129 -123 34 -33 133 -127 219 -210 305 -290 288 -271 322 -359 35
-90 29 -91 65 9 6 17 15 39 19 50 21 48 60 152 60 158 0 4 20 57 44 119 23 62
56 147 71 188 15 41 42 113 60 160 75 196 89 235 87 243 -1 4 1 7 5 7 5 0 16
-21 26 -48 11 -26 30 -74 42 -107 22 -56 120 -317 222 -590 24 -66 50 -133 58
-150 7 -16 19 -49 26 -72 6 -23 15 -40 19 -38 4 2 19 37 34 78 26 72 31 78
183 223 86 82 211 201 277 265 67 64 153 147 193 185 l72 69 77 205 c42 113
82 219 89 235 7 17 40 107 74 200 34 94 66 179 71 190 5 11 21 52 35 90 14 39
29 79 34 90 6 11 31 79 57 150 26 72 51 141 57 155 6 14 11 30 13 35 3 12 82
223 94 250 4 11 31 83 59 160 29 77 56 149 60 160 25 60 30 75 23 75 -4 0 -48
-39 -98 -87 -51 -49 -176 -169 -279 -268 -326 -313 -309 -295 -335 -360 -13
-33 -33 -69 -45 -80 -35 -32 -174 -156 -230 -205 -60 -53 -203 -181 -219 -195
-6 -6 -47 -42 -91 -80 -44 -39 -98 -87 -120 -107 -90 -82 -86 -80 -104 -60 -9
9 -52 48 -96 87 -44 38 -87 77 -95 85 -42 42 -169 150 -177 150 -7 0 -118 -94
-169 -144 -17 -17 -146 -131 -180 -160 -18 -14 -35 -26 -39 -26 -5 0 -184 154
-261 225 -6 6 -41 37 -79 70 -37 33 -73 65 -79 70 -6 6 -67 60 -136 120 -69
60 -130 115 -136 121 -7 6 -25 21 -41 35 -25 21 -73 111 -73 138 0 9 -63 72
-213 215 -29 27 -146 139 -260 250 -187 179 -266 250 -231 205z"/>
<path d="M1896 1152 c-5 -8 -65 -176 -148 -416 l-31 -89 34 -31 c19 -17 59
-52 88 -78 29 -27 56 -48 59 -48 7 0 98 77 163 138 l32 30 -93 249 c-51 136
-94 249 -95 251 -2 2 -6 -1 -9 -6z"/>
</g>
</svg>
